<svg xmlns="http://www.w3.org/2000/svg" viewBox="0 0 107.67 111.51"><defs><style>.cls-1{fill:#fff;}</style></defs><g id="Layer_2" data-name="Layer 2"><g id="Layer_1-2" data-name="Layer 1"><path class="cls-1" d="M73.25,32.18c.23.23.45.43.66.65a10.17,10.17,0,0,1,1.49,1.84A4.34,4.34,0,0,1,76,36.75a16.19,16.19,0,0,1-.23,2.87l-.09.68s.06,0,.07,0A9.71,9.71,0,0,0,76.65,37a7.85,7.85,0,0,0-.53-3.39,23.77,23.77,0,0,0-1.42-2.86,12.3,12.3,0,0,1-1.11-2.52,5.41,5.41,0,0,1-.22-1.45c0-.05,0-.12,0-.15s-.09.05-.13.09a18.91,18.91,0,0,0-2.41,3.15A13.51,13.51,0,0,0,69.33,33,7.29,7.29,0,0,0,69,34.85a5,5,0,0,0,1.26,3.53,12.49,12.49,0,0,0,2.62,2.25c.69.46,1.38.92,2.08,1.37a.49.49,0,0,1,.25.51,1.93,1.93,0,0,1-.22.82c0,.05-.07.09,0,.17a.86.86,0,0,0,.42-.25,10.49,10.49,0,0,0,1-1.18c.12-.15.25-.29.38-.43s.09-.07.15,0a.55.55,0,0,0,.69.11.42.42,0,0,0,0-.73.65.65,0,0,0-.54-.09,4.83,4.83,0,0,0-1.83.79c-.11.09-.18.09-.28,0a6.85,6.85,0,0,1-2-2.58,4.92,4.92,0,0,1-.33-1.61,11.38,11.38,0,0,1,.17-2.33C73,34.21,73.16,33.21,73.25,32.18Zm-3.33.88a10.43,10.43,0,0,1,1-2.28,24.41,24.41,0,0,1,1.89-2.64s0-.08.08-.06,0,.06.06.1a6.34,6.34,0,0,0,.68,1.5s.06.05,0,.11l-.14-.12a6.24,6.24,0,0,1-.61-.75c-.06-.08-.09-.11-.17,0A13.26,13.26,0,0,0,69.92,33.06Z"/><path class="cls-1" d="M74.09,41.85a.07.07,0,0,0-.06-.08,22.65,22.65,0,0,0-3.7-1.15A9,9,0,0,0,68,40.45a4.59,4.59,0,0,0-3.39,1.81,9.16,9.16,0,0,0-1.15,1.9c0,.07-.11.19.08.16a9.39,9.39,0,0,1,3.3.17,10.62,10.62,0,0,0,2.1.29,6.69,6.69,0,0,0,1.54-.19,10.59,10.59,0,0,0,3.15-1.25l.07,0c0,.05,0,.08,0,.11a10.15,10.15,0,0,0-1,3.09c0,.12,0,.24,0,.36s0,.12,0,.13.07,0,.09-.08A15.24,15.24,0,0,0,73.92,45a8,8,0,0,0,.87-2.27c0-.13,0-.27.06-.41s0-.09,0-.12-.08,0-.11,0a3.92,3.92,0,0,1-.86.39,6.16,6.16,0,0,1-3.38,0,7.31,7.31,0,0,1-1.92-.78s-.11,0-.1-.09.08-.06.12-.08a7.42,7.42,0,0,1,3.1-.34,19.74,19.74,0,0,1,2.17.4Zm-5.71,2.41c-.21,0-.42,0-.63-.1a13.46,13.46,0,0,0-3.34-.47c-.14,0-.13-.07-.08-.16a4.55,4.55,0,0,1,.63-1l.33-.37a2.7,2.7,0,0,1-.25.4,2.48,2.48,0,0,0-.27.57c-.09.28-.06.31.21.33s.29,0,.43.06C66.42,43.71,67.38,44.06,68.38,44.26Z"/><path class="cls-1" d="M76.41,39.84a6.61,6.61,0,0,0,1-1.57,8.53,8.53,0,0,0,.69-3,30.17,30.17,0,0,0-.14-3.8c0-.85-.11-1.7-.1-2.55A13.92,13.92,0,0,1,78,27.18c0-.15,0-.17-.14-.12a3.54,3.54,0,0,0-1.16.74,10.6,10.6,0,0,0-1.64,2,.22.22,0,0,0,0,.27c.41.79.83,1.58,1.23,2.37a8.21,8.21,0,0,1,.86,2.76,8.35,8.35,0,0,1-.7,4.49A.25.25,0,0,0,76.41,39.84Z"/><path class="cls-1" d="M72.3,40.79A6.85,6.85,0,0,0,71.12,40a9.91,9.91,0,0,0-3.23-1.27,5,5,0,0,0-3.8.69,5.56,5.56,0,0,0-1.4,1.42s-.08.08,0,.13.08,0,.13,0a3.46,3.46,0,0,1,1.59.22c.11.05.18,0,.27-.06a6.28,6.28,0,0,1,1.86-1A5.83,5.83,0,0,1,69.67,40a19.11,19.11,0,0,1,2.47.77Z"/><path class="cls-1" d="M78.78,41.12a2.35,2.35,0,0,0,.79-.1,5.18,5.18,0,0,0,2.85-1.81A3,3,0,0,0,83,38a.74.74,0,0,0,0-.33.22.22,0,0,0-.15-.18.24.24,0,0,0-.22.1.57.57,0,0,0-.13.27,4.48,4.48,0,0,1-2.41,2.8,5.42,5.42,0,0,1-1.21.47Z"/><path class="cls-1" d="M78,40.84a2.35,2.35,0,0,0,.64-.24,4.44,4.44,0,0,0,2-1.92A2.62,2.62,0,0,0,81,37.49a.65.65,0,0,0-.07-.34c-.09-.15-.21-.15-.31,0a.78.78,0,0,0-.09.34A3.68,3.68,0,0,1,79.19,40a4.6,4.6,0,0,1-1.07.73S78,40.78,78,40.84Z"/><path class="cls-1" d="M92.91,84.37a13.59,13.59,0,0,0-1.69-2.48,15.26,15.26,0,0,1,.8,15,11.06,11.06,0,0,0-.34-7.29,18.56,18.56,0,0,0-3.05-4.87c-1.89-2.29-4.08-4.3-6.15-6.42-4.27-4.37-8.25-9-12.09-13.74a12,12,0,0,1-2.15-11.39,1.9,1.9,0,0,0,.17-1,8.65,8.65,0,0,0-1.47,3.06A14,14,0,0,0,67.19,63c.54,2,1.24,4.06,1.66,6.15a9.56,9.56,0,0,1-2.76,9.17,5.08,5.08,0,0,0-.63.68,1.09,1.09,0,0,0,.39,1.85,5.36,5.36,0,0,0,1.7.54,16.35,16.35,0,0,0,3,.28c-.33.43-.61.74-.83,1.09a1.15,1.15,0,0,0,.47,1.83c.21.13.43.23.64.35.76.45.84.69.5,1.51-.43,1.06.06,2,1.31,2.38,1,.32,1,.32.9,1.39,0,.46-.1.93-.18,1.38-.61,3.15,2,4.56,4.28,4.19a9.55,9.55,0,0,0,2.15-.66,11.33,11.33,0,0,1,4.36-1c2.24,0,3.37,1.45,2.87,3.63a10.69,10.69,0,0,1-1.66,3.53,38.22,38.22,0,0,1-6.21,6.87c-1,1-2.12,1.85-3.18,2.77.13.2.27.1.38.07A33.78,33.78,0,0,0,89,104.54,16.28,16.28,0,0,0,95,95,15.7,15.7,0,0,0,92.91,84.37Z"/><path class="cls-1" d="M48.38,55.5c.88-.27,1.76-.56,2.7-.87l.65-.21-2.9-6.65c-.06-.17-.15-.33-.21-.5a1.9,1.9,0,0,1,2.27-2.59v-.74H39.13v1a4.8,4.8,0,0,1,3.12.76,5.39,5.39,0,0,1,1.75,2l3.55,8.11Z"/><path class="cls-1" d="M80.77,95.37c-.17-.18-.38,0-.55,0a8.08,8.08,0,0,1-2.79.82c-2.18.15-4.11-.87-4.55-3.15a8,8,0,0,1,.2-2.57c.14-1,.14-1-.8-1.41a2.07,2.07,0,0,1-1.29-3,.52.52,0,0,0-.2-.73,8.4,8.4,0,0,1-1.58-1.09c-.28-.31-.37.15-.45.32-.62,1.41-1.31,3-1.93,4.44L52.11,55.3a16.85,16.85,0,0,1-3.78,2.21C52.75,67.63,59,81.93,59.82,83.79l8.73,19.5c1.15,2.56,2.32,5.12,3.44,7.69.32.74.91.44,1.42.52s.66-.18.82-.57l6.45-15.07C80.75,95.7,80.91,95.52,80.77,95.37Z"/><path class="cls-1" d="M107.55,43.4a.43.43,0,0,0-.4-.29c-.24,0-.48,0-.73,0H76.5c-.31,0-.75-.14-.86.28a2.13,2.13,0,0,0,0,1.43c.12.25.43.18.67.17a21.85,21.85,0,0,1,4,.27c3,.51,3.94,1.92,3.06,4.86a49.85,49.85,0,0,1-2,5,1.32,1.32,0,0,0,0,1.25,14.17,14.17,0,0,1,1.53,4.57c0,.18,0,.45.22.51s.28-.18.39-.31a11.66,11.66,0,0,1,5.54-3.24c1.66-.53,3.35-1,5-1.48.84-.25,1.67-.55,2.5-.86a3.69,3.69,0,0,0,2.28-2.24c.7-1.72,1.65-3.32,2.5-5,1.07-2.05,2.89-2.82,5-3.2l.2,0A1.12,1.12,0,0,0,107.55,43.4Z"/><path class="cls-1" d="M84.74,69.53a.81.81,0,0,0-.87.13c-.25.24-.18.52-.1.81a10.71,10.71,0,0,0,2.45,4.42,16.41,16.41,0,0,0,9,4.71,14.81,14.81,0,0,0,4.88.32,7,7,0,0,1-2.8-2.8C96,75.3,95,73.34,93.66,71.55a14.14,14.14,0,0,0-3-3.1,5.53,5.53,0,0,0-5-.86c-.18,0-.45,0-.45.3s.24.23.4.3c1.34.64,2.69,1.23,4,2a2.59,2.59,0,0,1,.51.43,40.28,40.28,0,0,0-4.21-1.47,21.22,21.22,0,0,1,1.41,2.33c-.54-.47-1.07-1-1.62-1.42A2.53,2.53,0,0,0,84.74,69.53Z"/><path class="cls-1" d="M73.56,53.05c.47,2.45.67,5,1.35,7.37a9.74,9.74,0,0,0,1.73,3.63,5,5,0,0,0,2.86,1.79c.2,0,.46.22.6,0s-.13-.35-.26-.49a22.17,22.17,0,0,1-2.3-3.16,2.27,2.27,0,0,1-.38-1.11,18.43,18.43,0,0,0,2.47,2.74c.14.14.28.39.48.29s.1-.39.07-.59c-.11-.91-.22-1.82-.25-2.75.32.82.64,1.64,1,2.46a4.21,4.21,0,0,0,.65,1.15c.17.21.36.42.67.33s.37-.36.39-.63a10.81,10.81,0,0,0-.12-3.11,16.72,16.72,0,0,0-9.84-12.36,2.89,2.89,0,0,0-1.44-.32C73,49.43,73.22,51.29,73.56,53.05Z"/><path class="cls-1" d="M96.55,56.06c-2,.81-4.15,1.24-6.22,1.88a16.83,16.83,0,0,0-5.24,2.35,5.35,5.35,0,0,0-2.32,3.85c0,.19-.11.45.09.56s.33-.16.45-.29a22.65,22.65,0,0,1,3-2.74,2.73,2.73,0,0,1,1.07-.55A18.79,18.79,0,0,0,84.82,64c-.11.15-.36.32-.25.5s.39,0,.59,0c.89-.22,1.79-.45,2.7-.63-.77.52-1.65.84-2.4,1.37-.28.21-.59.4-.85.63s-.47.46-.34.8.5.31.8.29a13.09,13.09,0,0,0,5.29-1.41,17.07,17.07,0,0,0,8.62-10,7.84,7.84,0,0,0,.25-1.09,3,3,0,0,0,0-.52A4.67,4.67,0,0,1,96.55,56.06Z"/><path class="cls-1" d="M78.31,69.49a20.84,20.84,0,0,1-4.23-10.71,23,23,0,0,0,1,8.92,11.6,11.6,0,0,0,4.5,5.52A36.3,36.3,0,0,0,87,77a2,2,0,0,0,.37,0A24.11,24.11,0,0,1,78.31,69.49Z"/><path class="cls-1" d="M98.63,83c1.56,8.43-1.1,15.36-6.68,21.37a36.85,36.85,0,0,0,5.78-5.73,12.57,12.57,0,0,0,2.12-11.78A36.9,36.9,0,0,0,98.63,83Z"/><path class="cls-1" d="M20.87,52a1.58,1.58,0,0,0,.91.26c-.55-.44-1.05-.81-1.52-1.21-2.59-2.24-4.11-4.94-3.81-8.49a20.37,20.37,0,0,1,.85-3.71,43,43,0,0,1,3.9-7.18,11.82,11.82,0,0,0,1.37-2.19c.79-1.1,1.59-2.18,2.35-3.29a52.09,52.09,0,0,0,5.6-9.68C33.11,10.14,32,5.15,26.94.56A1.85,1.85,0,0,0,26.11,0c.35.64.67,1.18.94,1.73,1.61,3.32,1.34,6.7.23,10.08C26,15.89,23.66,19.46,21.36,23c-1.32,2-2.86,4-4.06,6.09a45.08,45.08,0,0,0-4,6.63,12,12,0,0,0-1.11,2.9l0,.07a7.4,7.4,0,0,0,.78,7.2A18.73,18.73,0,0,0,20.87,52Z"/><path class="cls-1" d="M52.57,54.51,52,55a16.12,16.12,0,0,1-3.78,2.22,13.26,13.26,0,0,1-1.84.62c-7.93,2.11-15.32,1.09-22-3.92a4.39,4.39,0,0,1-1.09-1.06,2.08,2.08,0,0,1-.72-.81h0c-.09-.34-.77-1-1-1.3a11,11,0,0,1-1.84-5.5,18,18,0,0,1,1.39-7.35C23,33,26.38,28.79,29,24.25a48.58,48.58,0,0,0,4.23-8.36c1.09-3.14,1.51-6.27-.28-9.36A6.88,6.88,0,0,1,34.73,8.3a11.42,11.42,0,0,1,2.76,8.25c-.08,1-.73,4.5.23,5.2A1,1,0,0,0,39,21.64c0,.7-1.31.49-1.66,1.1a1.1,1.1,0,0,0,0,.8,10.26,10.26,0,0,0,1.12,2.8,11.62,11.62,0,0,0,.84,1.27c.15.19.32.36.48.54a1.89,1.89,0,0,1,.62,1.07c0,.52-.43.75-.76,1.06a1.38,1.38,0,0,1-.47.17c-1.54.46-1.55.46-1.13,2,.21.78.25,1.45-.71,1.77-.52.16-.67.51-.26,1s.28.8-.2,1.08a1.33,1.33,0,0,0-.62,1c0,1.06.61,2,.57,3.09,0,.33,0,.67-.06,1a1.76,1.76,0,0,1-2.08,1.52,17.82,17.82,0,0,1-5.17-1.28c-.15-.06-.3-.14-.45-.21-1-.21-2-.66-3-.82-1.76-.28-2.74.23-3.32,1.78-.31.81.15,1.5.27,2.25a18.74,18.74,0,0,0,4.72,6.69,23.11,23.11,0,0,0,8.56,4.87,20.38,20.38,0,0,0,11.43-.17l.79-.23c1.08-.32,2.16-.68,3.39-1.09Z"/><path class="cls-1" d="M21.88,74.19a4.08,4.08,0,0,1-4.23-4.41,6.29,6.29,0,0,1,.48-2.14c1.49-4,3-8,4.48-11.93.2-.51.15-.72-.39-.92a15,15,0,0,1-4.88-2.88c-.63-.58-.79-.47-1.08.26C14.14,57.33,12,62.5,9.81,67.61c-1.69,3.9-4.52,6.4-9,6.58C.46,74.2,0,74,0,74.72s.55.44.88.44c3.49,0,7,0,10.47,0H22.08c.62,0,.91-.36.65-.79S22.17,74.2,21.88,74.19Z"/><path class="cls-1" d="M67.72,72.92a5.47,5.47,0,0,1-1.61-1.73L57.05,50.53c-.46-1.06-.91-2.13-1.37-3.19s-.8-1.88-1.18-2.84l-.66-1.66c-.82-2-1.67-4.06-2.6-6.05-1.24-3.15-2.54-6.26-3.93-9.35a2.55,2.55,0,0,0-.13-.39q-3.37-8-6.76-16a41.51,41.51,0,0,1-2.65-7.5c-.06-.26,0-.57-.42-.6a.66.66,0,0,0-.76.5,13.39,13.39,0,0,1-.78,1.87A2.62,2.62,0,0,0,36,8.55a11,11,0,0,1,1.25,2.5A6.71,6.71,0,0,1,38,14.24a4.19,4.19,0,0,0,.34,2c1.54,3.85,3.06,7.71,4.6,11.57,1.22,3.38,2.58,6.71,3.93,10.05.45,1.21.9,2.42,1.37,3.63.19.46.37.91.55,1.37l2,4.88c.54,1.38,1.07,2.75,1.6,4.12,0,0,0,0,0,0,2.26,4.2,4.13,8.57,6.08,12.9q1.5,3.33,3,6.66a1.9,1.9,0,0,1-2.32,2.45v.74H70.85v-.95A4.83,4.83,0,0,1,67.72,72.92Z"/></g></g></svg>