<svg xmlns="http://www.w3.org/2000/svg" viewBox="0 0 223.07 170.31"><defs><style>.cls-1{fill:#fff;}</style></defs><g id="Layer_2" data-name="Layer 2"><g id="Layer_1-2" data-name="Layer 1"><path class="cls-1" d="M187,158.6v-.36A1.45,1.45,0,0,1,187,158.6Z"/><path class="cls-1" d="M187,164.77l0,.06Z"/><path class="cls-1" d="M187,158.6v-.36A1.45,1.45,0,0,1,187,158.6Z"/><path class="cls-1" d="M200.12,150.94l-.1,0Z"/><path class="cls-1" d="M187,158.6v-.36A1.45,1.45,0,0,1,187,158.6Z"/><path class="cls-1" d="M180.19,141.22c-.19,0-8.35-2.2-8.5-2.18s-.56-.1-.85-.12a21,21,0,0,0-5.37.24,17.17,17.17,0,0,0-5,1.43,16.52,16.52,0,0,0-3.48,2,26.06,26.06,0,0,1,8.7-2.33c.78,0,1.56-.07,2.34,0,1.14.07,2.27.2,3.41.3l1.74.35,4,1.15,5.77,2.29a15.51,15.51,0,0,0,2.08.93c1,.5,2,1,3,1.37l.5.26c2,.91,3.94,1.73,5.95,2.5a6.12,6.12,0,0,0,1.24.38,8.64,8.64,0,0,0,1.85.58,11.23,11.23,0,0,0,2.42.58l.1,0a10.58,10.58,0,0,0,2.57.32,12.11,12.11,0,0,0,4.16-.19,15.51,15.51,0,0,0,9-5.42c.09-.1.22-.2.17-.42l-1.05.87a18.46,18.46,0,0,1-4,2.49,15.14,15.14,0,0,1-8.61,1.07l-2-.37-2.52-.72a14.15,14.15,0,0,0-1.86-.65l-1-.38"/><path class="cls-1" d="M220,149.31a14.31,14.31,0,0,1-3.11,3.2,18.14,18.14,0,0,1-10.61,3.92,25.2,25.2,0,0,1-6.91-.68,6.68,6.68,0,0,1-1.74-.46,9.36,9.36,0,0,1-2.14-.68l-.05,0a37.79,37.79,0,0,1-3.85-1.42c-.3-.11-.59-.26-.88-.39-1-.38-2-.8-3-1.28l-2.76-1.16-2.52-1.06-4.41-1.6-4.84-1.27c-1.27-.15-2.53-.38-3.81-.5a16.79,16.79,0,0,0-10.81,2.34,10.85,10.85,0,0,0-2.61,15.53,2.11,2.11,0,0,1,.41.61c3.14,3.56,7.19,4.9,11.82,4.87a32.05,32.05,0,0,0,11.92-2.73l.42-.17s.07,0,.18,0c-1,.56-2,1-3.07,1.48a26,26,0,0,1-12.19,2.37,15.1,15.1,0,0,1-7.92-2.74,12.6,12.6,0,0,1-5.4-8.38,12.2,12.2,0,0,1,4.71-12.28,9.62,9.62,0,0,1,2.32-1.45,18.09,18.09,0,0,1,9.05-1.93,26.77,26.77,0,0,1,5.35.63,24.18,24.18,0,0,1,5,1.28,11.19,11.19,0,0,1,2.33.71,12.65,12.65,0,0,1,2,.77,14.71,14.71,0,0,1,2.3.92c1,.42,2,.76,3,1.27s2,.78,2.9,1.25l4.38,1.75.32.14,2,.68,2.32.67,2.76.49a33.28,33.28,0,0,0,3.46.2,31.63,31.63,0,0,0,3.34-.49,16.11,16.11,0,0,0,7.49-4,14.55,14.55,0,0,0,4.35-8.31c.61-3.94-1-7.13-4.93-8.63l-.58-.23a17.53,17.53,0,0,0-4-.51,17.35,17.35,0,0,0-6.2,1.28,17.7,17.7,0,0,0-5.25,3.55,16.24,16.24,0,0,1,11.12-5.72,6.36,6.36,0,0,1,2.46,0,21.87,21.87,0,0,1,2.29.38,8.5,8.5,0,0,1,6.68,7.27A14.9,14.9,0,0,1,220,149.31Z"/><path class="cls-1" d="M35.12,109.07v.35A1.37,1.37,0,0,0,35.12,109.07Z"/><path class="cls-1" d="M35.06,102.9l0-.06Z"/><path class="cls-1" d="M35.12,109.07v.35A1.37,1.37,0,0,0,35.12,109.07Z"/><path class="cls-1" d="M48.23,116.73l-.1,0Z"/><path class="cls-1" d="M35.12,109.07v.35A1.37,1.37,0,0,0,35.12,109.07Z"/><path class="cls-1" d="M28.3,126.45c-.19,0-8.35,2.19-8.5,2.18s-.56.1-.85.12a21,21,0,0,1-5.37-.24,17.08,17.08,0,0,1-5-1.43,16.52,16.52,0,0,1-3.48-2,26.06,26.06,0,0,0,8.7,2.33c.78,0,1.56.07,2.34,0,1.14-.06,2.27-.19,3.41-.3l1.73-.34,4-1.15,5.77-2.3a16.84,16.84,0,0,1,2.08-.92c1-.5,2-1,3-1.37l.5-.26c2-.91,3.94-1.73,5.95-2.5a6.12,6.12,0,0,1,1.24-.38,7.64,7.64,0,0,1,1.85-.58,11.23,11.23,0,0,1,2.42-.58l.1,0a10.58,10.58,0,0,1,2.57-.32,12.11,12.11,0,0,1,4.16.19,15.46,15.46,0,0,1,9,5.42c.09.1.22.2.16.42l-1-.87a18.46,18.46,0,0,0-4-2.49A15.05,15.05,0,0,0,50.46,118l-2,.36L46,119.1a15,15,0,0,1-1.85.65l-1,.38"/><path class="cls-1" d="M68.09,118.36a14.31,14.31,0,0,0-3.11-3.2,18.14,18.14,0,0,0-10.61-3.92,15.25,15.25,0,0,0-3.57.11,14.6,14.6,0,0,0-3.34.57,6.68,6.68,0,0,0-1.74.46,9.36,9.36,0,0,0-2.14.68l0,0a37.79,37.79,0,0,0-3.85,1.42c-.3.11-.59.26-.88.39-1,.38-2,.8-3,1.28l-2.76,1.16-2.52,1.06L26.12,120l-4.84,1.27c-1.27.16-2.53.38-3.81.51a16.79,16.79,0,0,1-10.81-2.34,10.85,10.85,0,0,1-2.61-15.53,2.11,2.11,0,0,0,.41-.61c3.14-3.56,7.19-4.9,11.82-4.87a31.86,31.86,0,0,1,11.92,2.73l.42.17s.07,0,.18,0c-1-.56-2-1-3.07-1.48a26,26,0,0,0-12.19-2.37,15.1,15.1,0,0,0-7.92,2.74,12.58,12.58,0,0,0-5.4,8.38,12.2,12.2,0,0,0,4.71,12.28,9.62,9.62,0,0,0,2.32,1.45,18.09,18.09,0,0,0,9.05,1.93,26.77,26.77,0,0,0,5.35-.63,24.18,24.18,0,0,0,5-1.28,11.22,11.22,0,0,0,2.33-.72,11.68,11.68,0,0,0,2-.76,14.71,14.71,0,0,0,2.3-.92c1-.42,2-.76,3-1.27a31,31,0,0,0,2.9-1.26l4.38-1.74.32-.14,1.95-.68,2.32-.67,2.76-.49a33.28,33.28,0,0,1,3.46-.2,31.63,31.63,0,0,1,3.34.49,16.11,16.11,0,0,1,7.49,4,14.48,14.48,0,0,1,4.34,8.31c.62,3.94-1,7.13-4.92,8.62l-.58.24a18.12,18.12,0,0,1-3.95.51,16.3,16.3,0,0,1-11.45-4.83,14,14,0,0,0,5.26,4.11,14.15,14.15,0,0,0,5.86,1.61,6.78,6.78,0,0,0,2.46,0,21.87,21.87,0,0,0,2.29-.38,8.5,8.5,0,0,0,6.68-7.27A14.88,14.88,0,0,0,68.09,118.36Z"/><path class="cls-1" d="M134.67,32.18c.23.23.46.43.66.65a10.17,10.17,0,0,1,1.49,1.84,4.34,4.34,0,0,1,.61,2.08,17.18,17.18,0,0,1-.22,2.87c0,.23-.07.45-.1.68,0,0,.06,0,.07,0a9.71,9.71,0,0,0,.89-3.25,7.56,7.56,0,0,0-.53-3.39,23.77,23.77,0,0,0-1.42-2.86,12.83,12.83,0,0,1-1.1-2.52,5.42,5.42,0,0,1-.23-1.45c0-.05,0-.12,0-.15s-.09.05-.13.09a18.91,18.91,0,0,0-2.41,3.15A13.51,13.51,0,0,0,130.75,33a7.75,7.75,0,0,0-.35,1.85,5.07,5.07,0,0,0,1.26,3.53,12.49,12.49,0,0,0,2.62,2.25c.69.46,1.38.92,2.08,1.37a.49.49,0,0,1,.25.51,1.93,1.93,0,0,1-.22.82c0,.05-.07.09,0,.17a.86.86,0,0,0,.42-.25,10.49,10.49,0,0,0,1-1.18c.12-.15.25-.29.38-.43s.09-.07.16,0a.53.53,0,0,0,.68.11.42.42,0,0,0,0-.73.64.64,0,0,0-.54-.09,4.83,4.83,0,0,0-1.83.79.18.18,0,0,1-.28,0,6.73,6.73,0,0,1-2-2.58,4.68,4.68,0,0,1-.34-1.61,12.13,12.13,0,0,1,.17-2.33C134.41,34.21,134.58,33.21,134.67,32.18Zm-3.33.88a10.43,10.43,0,0,1,1-2.28,25.86,25.86,0,0,1,1.89-2.64s0-.08.08-.06a.17.17,0,0,1,.06.1,6.77,6.77,0,0,0,.68,1.5s.06.05,0,.11l-.13-.12a5.49,5.49,0,0,1-.62-.75c0-.08-.09-.11-.17,0A13.43,13.43,0,0,0,131.34,33.06Z"/><path class="cls-1" d="M135.51,41.85a.07.07,0,0,0-.06-.08,22.54,22.54,0,0,0-3.69-1.15,9.07,9.07,0,0,0-2.38-.17A4.61,4.61,0,0,0,126,42.26a9.16,9.16,0,0,0-1.15,1.9c0,.07-.1.19.08.16a9.39,9.39,0,0,1,3.3.17,10.62,10.62,0,0,0,2.1.29,6.69,6.69,0,0,0,1.54-.19A10.48,10.48,0,0,0,135,43.34l.07,0c0,.05,0,.08,0,.11a10.15,10.15,0,0,0-1,3.09c0,.12,0,.24,0,.36s0,.12,0,.13.07,0,.1-.08A16.44,16.44,0,0,0,135.34,45a8,8,0,0,0,.87-2.27,2.7,2.7,0,0,0,.06-.41s0-.09,0-.12-.07,0-.11,0a3.92,3.92,0,0,1-.86.39,6.16,6.16,0,0,1-3.38,0,7.11,7.11,0,0,1-1.91-.78c-.05,0-.12,0-.11-.09s.08-.06.12-.08a7.42,7.42,0,0,1,3.1-.34,19.74,19.74,0,0,1,2.17.4Zm-5.71,2.41a6.17,6.17,0,0,1-.62-.1,13.61,13.61,0,0,0-3.35-.47c-.14,0-.13-.07-.08-.16a4.55,4.55,0,0,1,.63-1l.33-.37a3.85,3.85,0,0,1-.24.4,2.16,2.16,0,0,0-.28.57c-.09.28-.06.31.21.33s.29,0,.43.06C127.84,43.71,128.8,44.06,129.8,44.26Z"/><path class="cls-1" d="M137.83,39.84a6.61,6.61,0,0,0,1-1.57,8.32,8.32,0,0,0,.69-3,32.17,32.17,0,0,0-.13-3.8c-.06-.85-.12-1.7-.1-2.55a12.19,12.19,0,0,1,.13-1.71c0-.15,0-.17-.14-.12a3.54,3.54,0,0,0-1.16.74,10.6,10.6,0,0,0-1.64,2,.22.22,0,0,0,0,.27c.41.79.83,1.58,1.23,2.37a8,8,0,0,1,.86,2.76,8.44,8.44,0,0,1-.69,4.49A.21.21,0,0,0,137.83,39.84Z"/><path class="cls-1" d="M133.72,40.79a7.19,7.19,0,0,0-1.17-.84,10,10,0,0,0-3.24-1.27,5,5,0,0,0-3.8.69,5.56,5.56,0,0,0-1.4,1.42s-.08.08,0,.13.09,0,.13,0a3.46,3.46,0,0,1,1.59.22.24.24,0,0,0,.27-.06,6.28,6.28,0,0,1,1.86-1,5.83,5.83,0,0,1,3.18-.09,19.11,19.11,0,0,1,2.47.77Z"/><path class="cls-1" d="M140.2,41.12A2.35,2.35,0,0,0,141,41a5.14,5.14,0,0,0,2.85-1.81,3,3,0,0,0,.6-1.26.62.62,0,0,0,0-.33.22.22,0,0,0-.15-.18.24.24,0,0,0-.22.1.68.68,0,0,0-.13.27,4.48,4.48,0,0,1-2.41,2.8,5.24,5.24,0,0,1-1.21.47Z"/><path class="cls-1" d="M139.45,40.84a2.35,2.35,0,0,0,.64-.24,4.44,4.44,0,0,0,2-1.92,2.62,2.62,0,0,0,.33-1.19.57.57,0,0,0-.07-.34c-.08-.15-.21-.15-.3,0a.67.67,0,0,0-.1.34A3.7,3.7,0,0,1,140.62,40a4.89,4.89,0,0,1-1.08.73S139.46,40.78,139.45,40.84Z"/><path class="cls-1" d="M192.14,109.91c-.14.13-.27.25-.39.38a6.06,6.06,0,0,0-.87,1.08,2.58,2.58,0,0,0-.36,1.21,9.55,9.55,0,0,0,.13,1.69l.06.4s0,0,0,0a5.54,5.54,0,0,1-.52-1.91,4.52,4.52,0,0,1,.3-2,15.34,15.34,0,0,1,.84-1.67,7.73,7.73,0,0,0,.65-1.47,4.06,4.06,0,0,0,.13-.85s0-.08,0-.09.06,0,.08,0a10.64,10.64,0,0,1,1.41,1.85,8,8,0,0,1,.85,1.83,4.4,4.4,0,0,1,.21,1.08,3,3,0,0,1-.74,2.07,7.18,7.18,0,0,1-1.54,1.32c-.4.27-.8.54-1.21.8a.29.29,0,0,0-.15.3,1.15,1.15,0,0,0,.13.48s0,0,0,.1a.56.56,0,0,1-.25-.14,5.69,5.69,0,0,1-.6-.7c-.07-.08-.15-.16-.22-.25s-.06,0-.09,0a.33.33,0,0,1-.41.07.25.25,0,0,1,0-.43.41.41,0,0,1,.32-.06,3,3,0,0,1,1.07.47.1.1,0,0,0,.16,0,4,4,0,0,0,1.16-1.51,3.1,3.1,0,0,0,.2-.95,6.87,6.87,0,0,0-.1-1.36C192.29,111.1,192.19,110.51,192.14,109.91Zm2,.51a6.27,6.27,0,0,0-.57-1.33,14.1,14.1,0,0,0-1.11-1.55s0-.05,0,0,0,0,0,0a3.89,3.89,0,0,1-.4.88s0,0,0,.07l.08-.07a3.65,3.65,0,0,0,.36-.44s0-.06.1,0A7.86,7.86,0,0,1,194.09,110.42Z"/><path class="cls-1" d="M191.65,115.58s0,0,0,0a12.67,12.67,0,0,1,2.17-.67,5.4,5.4,0,0,1,1.39-.11,2.73,2.73,0,0,1,2,1.06,5.11,5.11,0,0,1,.67,1.12s.07.11,0,.09a5.45,5.45,0,0,0-1.93.1,6.5,6.5,0,0,1-1.23.17,3.82,3.82,0,0,1-.9-.11,6.06,6.06,0,0,1-1.85-.73l-.05,0a.14.14,0,0,0,0,.07,5.72,5.72,0,0,1,.58,1.81,1.52,1.52,0,0,1,0,.21s0,.07,0,.08,0,0-.06,0a11.23,11.23,0,0,1-.7-1.09,5.38,5.38,0,0,1-.51-1.33l0-.25s0-.05,0-.07,0,0,.06,0a3.32,3.32,0,0,0,.51.23,3.6,3.6,0,0,0,2,0,4.38,4.38,0,0,0,1.12-.45s.07,0,.06-.06,0,0-.07,0a4.14,4.14,0,0,0-1.81-.2,10.53,10.53,0,0,0-1.27.23ZM195,117l.37-.06a8.14,8.14,0,0,1,2-.28c.08,0,.07,0,.05-.09A2.83,2.83,0,0,0,197,116l-.19-.21a1.82,1.82,0,0,0,.15.23,2.11,2.11,0,0,1,.16.34c0,.16,0,.17-.13.19l-.25,0C196.14,116.66,195.58,116.87,195,117Z"/><path class="cls-1" d="M190.29,114.39a3.55,3.55,0,0,1-.59-.91,4.76,4.76,0,0,1-.4-1.78,16.47,16.47,0,0,1,.07-2.22c0-.5.07-1,.06-1.5a5.55,5.55,0,0,0-.08-1c0-.09,0-.1.09-.07a2.12,2.12,0,0,1,.68.43,6.24,6.24,0,0,1,1,1.15.14.14,0,0,1,0,.16c-.24.46-.49.92-.72,1.39a4.58,4.58,0,0,0-.51,1.62,4.91,4.91,0,0,0,.41,2.62S190.3,114.34,190.29,114.39Z"/><path class="cls-1" d="M192.7,115a4,4,0,0,1,.68-.49,5.74,5.74,0,0,1,1.9-.74,2.94,2.94,0,0,1,2.22.4,3.08,3.08,0,0,1,.82.83s.05,0,0,.08,0,0-.07,0a2,2,0,0,0-.93.13.18.18,0,0,1-.16,0,3.52,3.52,0,0,0-1.09-.6,3.4,3.4,0,0,0-1.87-.06,12,12,0,0,0-1.44.45Z"/><path class="cls-1" d="M188.9,115.14a1.26,1.26,0,0,1-.47,0,3.08,3.08,0,0,1-1.67-1.06,1.81,1.81,0,0,1-.35-.74.41.41,0,0,1,0-.19s0-.1.09-.11a.12.12,0,0,1,.12.06.3.3,0,0,1,.08.16,2.64,2.64,0,0,0,1.41,1.64,3.06,3.06,0,0,0,.71.27Z"/><path class="cls-1" d="M189.34,115a1.24,1.24,0,0,1-.38-.14,2.58,2.58,0,0,1-1.19-1.12,1.56,1.56,0,0,1-.19-.7.45.45,0,0,1,0-.2c0-.08.12-.09.18,0a.35.35,0,0,1,0,.2,2.22,2.22,0,0,0,.8,1.5,3,3,0,0,0,.63.43A.06.06,0,0,1,189.34,115Z"/><path class="cls-1" d="M9.39,74.74l.39.38a6.43,6.43,0,0,1,.87,1.08A2.66,2.66,0,0,1,11,77.42a9.55,9.55,0,0,1-.13,1.69l-.06.39s0,0,0,0a5.43,5.43,0,0,0,.52-1.9,4.64,4.64,0,0,0-.3-2,15.34,15.34,0,0,0-.84-1.67,7.82,7.82,0,0,1-.65-1.48,4,4,0,0,1-.13-.85s0-.07,0-.08-.06,0-.08,0A11.45,11.45,0,0,0,8,73.39a7.88,7.88,0,0,0-.85,1.84,4.4,4.4,0,0,0-.21,1.08,3,3,0,0,0,.74,2.07,7.42,7.42,0,0,0,1.54,1.31c.4.28.8.55,1.21.81a.28.28,0,0,1,.15.3,1.15,1.15,0,0,1-.13.48s0,0,0,.1a.54.54,0,0,0,.25-.15,5,5,0,0,0,.6-.69c.07-.09.15-.17.22-.25s.06,0,.09,0a.31.31,0,0,0,.4.06.24.24,0,0,0,0-.42.37.37,0,0,0-.32-.06,2.7,2.7,0,0,0-1.07.47c-.06,0-.1,0-.16,0a3.84,3.84,0,0,1-1.16-1.51,3,3,0,0,1-.2-.94,6.87,6.87,0,0,1,.1-1.36C9.24,75.93,9.34,75.35,9.39,74.74Zm-1.95.52A6.58,6.58,0,0,1,8,73.92a14,14,0,0,1,1.11-1.54s0,0,.05,0a.33.33,0,0,1,0,.06,4.1,4.1,0,0,0,.4.88s0,0,0,.07l-.08-.08a2.56,2.56,0,0,1-.36-.44s-.06-.06-.1,0A8,8,0,0,0,7.44,75.26Z"/><path class="cls-1" d="M9.88,80.41s0,0,0,0a12.7,12.7,0,0,0-2.17-.68,5.4,5.4,0,0,0-1.39-.1,2.68,2.68,0,0,0-2,1.06,5.51,5.51,0,0,0-.68,1.11s-.06.11.05.1a5.45,5.45,0,0,1,1.93.1,6.5,6.5,0,0,0,1.23.17,4.43,4.43,0,0,0,.9-.11,5.93,5.93,0,0,0,1.85-.74l0,0a.08.08,0,0,1,0,.07A6,6,0,0,0,9,83.14c0,.07,0,.14,0,.21s0,.06,0,.08,0,0,.05-.05a7.87,7.87,0,0,0,.7-1.1A4.78,4.78,0,0,0,10.3,81l0-.24s0,0,0-.07a.06.06,0,0,0-.06,0,2.11,2.11,0,0,1-.51.23,3.6,3.6,0,0,1-2,0,4.07,4.07,0,0,1-1.12-.46s-.07,0-.06,0,0,0,.07,0a4.14,4.14,0,0,1,1.81-.2,9.14,9.14,0,0,1,1.27.23ZM6.54,81.82l-.37,0a7.67,7.67,0,0,0-2-.28c-.08,0-.07,0,0-.1a2.76,2.76,0,0,1,.38-.58l.19-.22a1.94,1.94,0,0,1-.15.24,1.68,1.68,0,0,0-.16.33c0,.16,0,.18.13.2l.25,0C5.39,81.5,6,81.71,6.54,81.82Z"/><path class="cls-1" d="M11.24,79.23a3.93,3.93,0,0,0,.59-.91,4.76,4.76,0,0,0,.4-1.78,16.62,16.62,0,0,0-.07-2.23,14.85,14.85,0,0,1-.06-1.49,5.66,5.66,0,0,1,.08-1c0-.09,0-.1-.09-.07a2.21,2.21,0,0,0-.68.44,6.52,6.52,0,0,0-1,1.14.15.15,0,0,0,0,.17c.24.46.49.92.72,1.39a4.59,4.59,0,0,1,.51,1.61,4.94,4.94,0,0,1-.41,2.63S11.23,79.17,11.24,79.23Z"/><path class="cls-1" d="M8.83,79.79a4,4,0,0,0-.68-.49,5.74,5.74,0,0,0-1.9-.74A2.89,2.89,0,0,0,4,79a3.08,3.08,0,0,0-.82.83s0,0,0,.08,0,0,.07,0a2.1,2.1,0,0,1,.93.13c.07,0,.11,0,.16,0a4,4,0,0,1,1.09-.6,3.49,3.49,0,0,1,1.87,0,12,12,0,0,1,1.44.45Z"/><path class="cls-1" d="M12.63,80a1.19,1.19,0,0,0,.46,0,3.06,3.06,0,0,0,1.67-1.07,1.85,1.85,0,0,0,.36-.73.45.45,0,0,0,0-.2.11.11,0,0,0-.09-.1.12.12,0,0,0-.12.06.31.31,0,0,0-.08.15,2.6,2.6,0,0,1-1.42,1.64,2.63,2.63,0,0,1-.7.28Z"/><path class="cls-1" d="M12.19,79.82a1.57,1.57,0,0,0,.38-.14,2.63,2.63,0,0,0,1.19-1.12,1.6,1.6,0,0,0,.19-.71.41.41,0,0,0,0-.19c-.05-.09-.12-.09-.18,0a.35.35,0,0,0-.05.2,2.17,2.17,0,0,1-.8,1.49,2.43,2.43,0,0,1-.63.43S12.2,79.78,12.19,79.82Z"/><path class="cls-1" d="M154.33,84.37a13.59,13.59,0,0,0-1.69-2.48,15.26,15.26,0,0,1,.81,15,11.12,11.12,0,0,0-.35-7.29,18.3,18.3,0,0,0-3-4.87c-1.89-2.29-4.08-4.3-6.15-6.42-4.27-4.37-8.25-9-12.09-13.74a12,12,0,0,1-2.15-11.39,1.9,1.9,0,0,0,.17-1,8.62,8.62,0,0,0-1.46,3.06,14,14,0,0,0,.24,7.72c.54,2,1.24,4.06,1.66,6.15a9.56,9.56,0,0,1-2.76,9.17,5.08,5.08,0,0,0-.63.68,1.1,1.1,0,0,0,.39,1.85,5.36,5.36,0,0,0,1.7.54,16.44,16.44,0,0,0,3,.28c-.33.43-.61.74-.83,1.09a1.16,1.16,0,0,0,.47,1.83c.21.13.44.23.65.35.75.45.83.69.49,1.51-.43,1.06.07,2,1.31,2.38,1,.32,1,.32.9,1.39,0,.46-.1.93-.18,1.38-.61,3.15,2,4.56,4.28,4.19a9.55,9.55,0,0,0,2.15-.66,11.34,11.34,0,0,1,4.37-1c2.23,0,3.36,1.45,2.86,3.63a10.5,10.5,0,0,1-1.66,3.53,38.22,38.22,0,0,1-6.21,6.87c-1,1-2.12,1.85-3.18,2.77.13.2.27.1.38.07a33.82,33.82,0,0,0,12.63-6.41,16.31,16.31,0,0,0,6-9.59A15.7,15.7,0,0,0,154.33,84.37Z"/><path class="cls-1" d="M109.8,55.5c.88-.27,1.77-.56,2.71-.87l.64-.21-2.9-6.65c-.06-.17-.15-.33-.21-.5a1.9,1.9,0,0,1,2.27-2.59v-.74H100.55v1a4.8,4.8,0,0,1,3.12.76,5.39,5.39,0,0,1,1.75,2c.42.93,1.78,4.06,3.55,8.11Z"/><path class="cls-1" d="M142.19,95.37c-.17-.18-.38,0-.55,0a8,8,0,0,1-2.79.82c-2.18.15-4.11-.87-4.54-3.15a7.71,7.71,0,0,1,.19-2.57c.14-1,.14-1-.8-1.41a2.07,2.07,0,0,1-1.29-3,.52.52,0,0,0-.2-.73,8,8,0,0,1-1.57-1.09c-.29-.31-.38.15-.45.32-.63,1.41-1.32,3-1.94,4.44L113.54,55.3a16.91,16.91,0,0,1-3.79,2.21c4.42,10.12,10.66,24.42,11.49,26.28l8.73,19.5c1.15,2.56,2.32,5.12,3.44,7.69.32.74.92.44,1.42.52s.66-.18.82-.57l6.45-15.07C142.17,95.7,142.33,95.52,142.19,95.37Z"/><path class="cls-1" d="M169,43.4a.43.43,0,0,0-.4-.29c-.24,0-.48,0-.73,0H137.92c-.31,0-.75-.14-.86.28a2.13,2.13,0,0,0,.05,1.43c.12.25.43.18.67.17a21.85,21.85,0,0,1,4,.27c3,.51,3.94,1.92,3.06,4.86a49.85,49.85,0,0,1-2,5,1.32,1.32,0,0,0,0,1.25,14.15,14.15,0,0,1,1.52,4.57c0,.18,0,.45.22.51s.28-.18.39-.31a11.66,11.66,0,0,1,5.54-3.24c1.66-.53,3.36-1,5-1.48.84-.25,1.68-.55,2.5-.86a3.73,3.73,0,0,0,2.29-2.24c.69-1.72,1.64-3.32,2.5-5,1.06-2.05,2.88-2.82,5-3.2l.2,0A1.12,1.12,0,0,0,169,43.4Z"/><path class="cls-1" d="M146.16,69.53a.82.82,0,0,0-.87.13.75.75,0,0,0-.1.81,10.71,10.71,0,0,0,2.45,4.42,16.41,16.41,0,0,0,9,4.71,14.75,14.75,0,0,0,4.87.32,7,7,0,0,1-2.8-2.8c-1.25-1.82-2.28-3.78-3.59-5.57a13.87,13.87,0,0,0-3-3.1,5.54,5.54,0,0,0-5-.86c-.17,0-.45,0-.45.3s.25.23.4.3c1.34.64,2.69,1.23,4,2a2.59,2.59,0,0,1,.51.43,40.28,40.28,0,0,0-4.21-1.47,21.22,21.22,0,0,1,1.41,2.33c-.54-.47-1.07-1-1.62-1.42A2.45,2.45,0,0,0,146.16,69.53Z"/><path class="cls-1" d="M135,53.05c.47,2.45.67,5,1.35,7.37a9.9,9.9,0,0,0,1.73,3.63,5,5,0,0,0,2.86,1.79c.2,0,.47.22.6,0s-.13-.35-.25-.49A22.24,22.24,0,0,1,139,62.16a2.26,2.26,0,0,1-.37-1.11,17.39,17.39,0,0,0,2.47,2.74c.13.14.27.39.47.29s.1-.39.07-.59c-.1-.91-.22-1.82-.24-2.75l1,2.46a4.21,4.21,0,0,0,.65,1.15c.18.21.36.42.67.33s.37-.36.39-.63a10.81,10.81,0,0,0-.12-3.11,16.72,16.72,0,0,0-9.84-12.36,2.89,2.89,0,0,0-1.44-.32C134.46,49.43,134.65,51.29,135,53.05Z"/><path class="cls-1" d="M158,56.06c-2,.81-4.15,1.24-6.22,1.88a16.83,16.83,0,0,0-5.24,2.35,5.35,5.35,0,0,0-2.32,3.85c0,.19-.11.45.09.56s.33-.16.45-.29a22.65,22.65,0,0,1,3-2.74,2.73,2.73,0,0,1,1.07-.55A19.34,19.34,0,0,0,146.24,64c-.11.15-.36.32-.25.5s.4,0,.59,0c.9-.22,1.79-.45,2.7-.63-.77.52-1.65.84-2.4,1.37-.28.21-.58.4-.85.63s-.46.46-.33.8.5.31.8.29a13.09,13.09,0,0,0,5.28-1.41,17.07,17.07,0,0,0,8.62-10,6.63,6.63,0,0,0,.25-1.09,3,3,0,0,0,0-.52A4.61,4.61,0,0,1,158,56.06Z"/><path class="cls-1" d="M139.73,69.49a20.84,20.84,0,0,1-4.23-10.71,23.16,23.16,0,0,0,1,8.92,11.66,11.66,0,0,0,4.5,5.52A36.13,36.13,0,0,0,148.44,77a1.79,1.79,0,0,0,.36,0A24.11,24.11,0,0,1,139.73,69.49Z"/><path class="cls-1" d="M160.05,83c1.56,8.43-1.1,15.36-6.68,21.37a36.85,36.85,0,0,0,5.78-5.73,12.57,12.57,0,0,0,2.12-11.78A36.9,36.9,0,0,0,160.05,83Z"/><path class="cls-1" d="M82.3,52a1.57,1.57,0,0,0,.9.26c-.54-.44-1-.81-1.52-1.21-2.59-2.24-4.11-4.94-3.81-8.49a20.37,20.37,0,0,1,.85-3.71,43.73,43.73,0,0,1,3.9-7.18A12.43,12.43,0,0,0,84,29.49c.78-1.1,1.58-2.18,2.34-3.29a52.09,52.09,0,0,0,5.6-9.68c2.59-6.38,1.47-11.37-3.57-16A1.88,1.88,0,0,0,87.53,0c.35.64.67,1.18.94,1.73,1.61,3.32,1.34,6.7.23,10.08-1.33,4.08-3.62,7.65-5.92,11.22-1.32,2-2.86,4-4.06,6.09a44.17,44.17,0,0,0-4,6.63,11.62,11.62,0,0,0-1.12,2.9.19.19,0,0,0,0,.07,7.35,7.35,0,0,0,.78,7.2A18.67,18.67,0,0,0,82.3,52Z"/><path class="cls-1" d="M114,54.51l-.59.47a16.38,16.38,0,0,1-3.79,2.22,13.26,13.26,0,0,1-1.84.62c-7.93,2.11-15.32,1.09-22-3.92a4.39,4.39,0,0,1-1.09-1.06A2.08,2.08,0,0,1,84,52h0c-.1-.34-.78-1-1-1.3a11,11,0,0,1-1.84-5.5,18.17,18.17,0,0,1,1.39-7.35c1.92-4.92,5.28-9.08,7.92-13.62a48.58,48.58,0,0,0,4.23-8.36c1.1-3.14,1.51-6.27-.28-9.36A6.88,6.88,0,0,1,96.15,8.3a11.38,11.38,0,0,1,2.76,8.25c-.07,1-.73,4.5.24,5.2a1,1,0,0,0,1.25-.11c-.05.7-1.3.49-1.65,1.1a1.1,1.1,0,0,0,0,.8,10.26,10.26,0,0,0,1.12,2.8,11.62,11.62,0,0,0,.84,1.27c.15.19.32.36.49.54a1.93,1.93,0,0,1,.61,1.07c0,.52-.43.75-.76,1.06a1.31,1.31,0,0,1-.47.17c-1.53.46-1.55.46-1.13,2,.21.78.26,1.45-.71,1.77-.52.16-.67.51-.25,1s.28.8-.2,1.08a1.32,1.32,0,0,0-.63,1c0,1.06.61,2,.57,3.09,0,.33,0,.67-.06,1a1.76,1.76,0,0,1-2.08,1.52,17.68,17.68,0,0,1-5.16-1.28c-.16-.06-.31-.14-.46-.21-1-.21-2-.66-3-.82-1.76-.28-2.73.23-3.32,1.78-.31.81.15,1.5.27,2.25a18.74,18.74,0,0,0,4.72,6.69,23.07,23.07,0,0,0,8.57,4.87,20.35,20.35,0,0,0,11.42-.17l.79-.23c1.09-.32,2.16-.68,3.39-1.09Z"/><path class="cls-1" d="M83.3,74.19a4.08,4.08,0,0,1-4.23-4.41,6.29,6.29,0,0,1,.48-2.14c1.49-4,3-8,4.48-11.93.2-.51.15-.72-.39-.92a15.14,15.14,0,0,1-4.88-2.88c-.63-.58-.79-.47-1.08.26-2.12,5.16-4.22,10.33-6.45,15.44-1.69,3.9-4.52,6.4-9,6.58-.36,0-.84-.15-.82.53s.55.44.88.44c3.49,0,7,0,10.47,0H83.5c.62,0,.91-.36.65-.79S83.59,74.2,83.3,74.19Z"/><path class="cls-1" d="M129.15,72.92a5.24,5.24,0,0,1-1.61-1.73l-9.07-20.66c-.45-1.06-.91-2.13-1.37-3.19s-.8-1.88-1.18-2.84l-.66-1.66c-.82-2-1.67-4.06-2.59-6.05q-1.86-4.73-3.94-9.35a2.55,2.55,0,0,0-.13-.39q-3.37-8-6.76-16a41.51,41.51,0,0,1-2.65-7.5c-.06-.26,0-.57-.42-.6a.66.66,0,0,0-.76.5,13.39,13.39,0,0,1-.78,1.87,2.63,2.63,0,0,0,.15,3.24,11,11,0,0,1,1.25,2.5,6.71,6.71,0,0,1,.74,3.19,4.19,4.19,0,0,0,.34,2Q102,22,104.31,27.79c1.22,3.38,2.58,6.71,3.93,10.05.46,1.21.9,2.42,1.38,3.63.18.46.36.91.55,1.37.65,1.63,1.32,3.26,2,4.88l1.59,4.12,0,0c2.25,4.2,4.12,8.57,6.08,12.9l3,6.66a1.9,1.9,0,0,1-.4,1.92,1.93,1.93,0,0,1-1.92.53v.74h11.76v-.95A4.8,4.8,0,0,1,129.15,72.92Z"/><path class="cls-1" d="M12,103.43V85.82a7.62,7.62,0,0,0-.14-1.32A8,8,0,0,0,11.45,83a4.6,4.6,0,0,0-.74-1.26A2.37,2.37,0,0,0,9.64,81h11.3a25.78,25.78,0,0,1,3.38.25,12.05,12.05,0,0,1,3.32.94,6.86,6.86,0,0,1,2.53,2,5,5,0,0,1,1,3.26,3.76,3.76,0,0,1-.86,2.39,9.21,9.21,0,0,1-2.09,1.93,13.25,13.25,0,0,1-2.63,1.4,13.35,13.35,0,0,1-2.47.75,30.77,30.77,0,0,1,3.07.36,15.29,15.29,0,0,1,3.37.94A8,8,0,0,1,32.29,97a3.83,3.83,0,0,1,1.11,2.83,5.79,5.79,0,0,1-.55,2.56,6.88,6.88,0,0,1-1.52,2.05A9.86,9.86,0,0,1,29.15,106,15,15,0,0,1,26.6,107a15.65,15.65,0,0,1-2.67.62,19,19,0,0,1-2.53.19H9.48a2,2,0,0,0,1.09-.61,4.61,4.61,0,0,0,.79-1.15,8.13,8.13,0,0,0,.48-1.36A5.72,5.72,0,0,0,12,103.43ZM25.37,87.6A5.83,5.83,0,0,0,25,85.45a4.73,4.73,0,0,0-1.09-1.71,5.18,5.18,0,0,0-1.68-1.13,5.24,5.24,0,0,0-2.16-.43h-.83c-.26,0-.54,0-.82,0V93.74h.38a7.86,7.86,0,0,0,2.59-.42,6,6,0,0,0,2.08-1.21,5.54,5.54,0,0,0,1.4-1.92A6.27,6.27,0,0,0,25.37,87.6ZM21,106.87a5.9,5.9,0,0,0,4.26-1.55,5.57,5.57,0,0,0,1.62-4.23,6.82,6.82,0,0,0-.69-3.31,4.79,4.79,0,0,0-1.87-1.89A7.31,7.31,0,0,0,21.63,95a27.78,27.78,0,0,0-3.23-.19v11.68a7.56,7.56,0,0,0,1.29.26A10,10,0,0,0,21,106.87Z"/><path class="cls-1" d="M36.73,88.54c.49,0,1,0,1.63-.06a10.78,10.78,0,0,0,1.78-.27,9.12,9.12,0,0,0,1.67-.57,3.61,3.61,0,0,0,1.28-1v5a17.08,17.08,0,0,1,2.83-2.14,6.36,6.36,0,0,1,3.37-1,7.15,7.15,0,0,1,1.3.12L49.4,98.49a16.76,16.76,0,0,0-.15-2.07,10.84,10.84,0,0,0-.55-2.28,5.37,5.37,0,0,0-1.15-1.85,2.59,2.59,0,0,0-1.94-.77,3.29,3.29,0,0,0-1.33.29,5.43,5.43,0,0,0-1.19.71v11a5.86,5.86,0,0,0,.15,1.23,6.26,6.26,0,0,0,.46,1.32,4.61,4.61,0,0,0,.77,1.13,1.91,1.91,0,0,0,1,.61H34.78a1.91,1.91,0,0,0,1.07-.61,5.21,5.21,0,0,0,.79-1.15,6.1,6.1,0,0,0,.48-1.38,6.45,6.45,0,0,0,.15-1.26V92.82a5.67,5.67,0,0,0-.17-1.3,6.19,6.19,0,0,0-.5-1.32,4.5,4.5,0,0,0-.8-1.11,2.66,2.66,0,0,0-1.13-.67A17.92,17.92,0,0,0,36.73,88.54Z"/><path class="cls-1" d="M53.61,88.54c.49,0,1,0,1.63-.06A10.78,10.78,0,0,0,57,88.21a9.12,9.12,0,0,0,1.67-.57,3.61,3.61,0,0,0,1.28-1v16.88a5.86,5.86,0,0,0,.15,1.23,6.26,6.26,0,0,0,.46,1.32,4.61,4.61,0,0,0,.77,1.13,1.91,1.91,0,0,0,1,.61H51.66a1.91,1.91,0,0,0,1.07-.61,5.21,5.21,0,0,0,.79-1.15,6.63,6.63,0,0,0,.48-1.38,6.45,6.45,0,0,0,.15-1.26V92.82a5.67,5.67,0,0,0-.17-1.3,6.19,6.19,0,0,0-.5-1.32,4.5,4.5,0,0,0-.8-1.11,2.66,2.66,0,0,0-1.13-.67A17.79,17.79,0,0,0,53.61,88.54Zm-.69-6.05a2.28,2.28,0,0,1,.27-1.11,2.74,2.74,0,0,1,.71-.84,3.44,3.44,0,0,1,1-.54A3.35,3.35,0,0,1,56,79.81a3.28,3.28,0,0,1,2.08.73,2.32,2.32,0,0,1,.94,1.95,2.12,2.12,0,0,1-.29,1.07,2.84,2.84,0,0,1-.74.84,3.83,3.83,0,0,1-1,.54,3.25,3.25,0,0,1-1.09.19,3.1,3.1,0,0,1-1.07-.19,2.89,2.89,0,0,1-1-.56,3.1,3.1,0,0,1-.69-.84A2.11,2.11,0,0,1,52.92,82.49Z"/><path class="cls-1" d="M63.64,96.61a8,8,0,0,1,.56-2.89,9.12,9.12,0,0,1,1.51-2.58A7.74,7.74,0,0,1,68,89.28a6,6,0,0,1,2.89-.71,7.53,7.53,0,0,1,3.73,1,19.18,19.18,0,0,1,3.19,2.24V79.12a3.71,3.71,0,0,0,1.63,1.21,10.08,10.08,0,0,0,2.16.57,15,15,0,0,0,2.32.17c.78,0,1.47,0,2.09-.07a1.91,1.91,0,0,0-1.1.72A5.57,5.57,0,0,0,84.18,83a7.29,7.29,0,0,0-.42,1.47,7.93,7.93,0,0,0-.14,1.34v17.61a5.54,5.54,0,0,0,.16,1.24,6.43,6.43,0,0,0,.47,1.38,5.11,5.11,0,0,0,.79,1.17,1.91,1.91,0,0,0,1.07.61l-3.41,0c-.53,0-1.09,0-1.68-.08a3.85,3.85,0,0,1-1.61-.5c-.66.15-1.33.28-2,.37a15.46,15.46,0,0,1-2.05.13,14.08,14.08,0,0,1-4.72-.77,10.51,10.51,0,0,1-3.71-2.2,9.8,9.8,0,0,1-2.42-3.5A12.24,12.24,0,0,1,63.64,96.61Zm10.83,10.3a3.43,3.43,0,0,0,1.9-.59A5.19,5.19,0,0,0,77.8,105V92.74a5.55,5.55,0,0,0-1.55-.91,4.71,4.71,0,0,0-1.78-.35,3.41,3.41,0,0,0-2.23.71A4.94,4.94,0,0,0,70.88,94a7.73,7.73,0,0,0-.69,2.29A14.76,14.76,0,0,0,70,98.55a16.7,16.7,0,0,0,.21,2.4,13.11,13.11,0,0,0,.72,2.75A7.22,7.22,0,0,0,72.31,106,2.81,2.81,0,0,0,74.47,106.91Z"/><path class="cls-1" d="M87.26,103.31a3.05,3.05,0,0,1,.8-2.18,7.1,7.1,0,0,1,2-1.44c.82-.39,1.7-.77,2.64-1.13a14.67,14.67,0,0,0,2.64-1.28,6.68,6.68,0,0,0,2-1.89,5,5,0,0,0,.81-3,3.53,3.53,0,0,0-.73-2.18,2.46,2.46,0,0,0-2.07-1,3,3,0,0,0-2.14.75,2.69,2.69,0,0,0-.81,2.08,6.38,6.38,0,0,0,.21,1.59,4.64,4.64,0,0,0,.67,1.48L92,94.93a14.42,14.42,0,0,1-1.82-.5,6.55,6.55,0,0,1-1.57-.76,1.33,1.33,0,0,1-.67-1.11,2,2,0,0,1,.5-1.36,4.92,4.92,0,0,1,1.26-1.06,7.66,7.66,0,0,1,1.74-.74q1-.29,2-.48a17.06,17.06,0,0,1,1.84-.27c.57-.05,1-.08,1.44-.08a10.3,10.3,0,0,1,4.19.71,5.35,5.35,0,0,1,2.33,1.92,6.47,6.47,0,0,1,1,2.75,20.07,20.07,0,0,1,.13,3.22c0,1.11-.1,2.22-.19,3.35a19.45,19.45,0,0,0,0,3.14,6.94,6.94,0,0,0,.67,2.56,3.27,3.27,0,0,0,1.9,1.61,15.1,15.1,0,0,1-1.76-.56c-.57-.21-1.13-.42-1.69-.61a16.15,16.15,0,0,0-1.72-.48,8.68,8.68,0,0,0-1.88-.19,7.3,7.3,0,0,0-2,.27c-.64.18-1.26.38-1.87.61s-1.23.44-1.84.61a6.63,6.63,0,0,1-1.88.27,5,5,0,0,1-3.31-1.24,4.49,4.49,0,0,1-1-1.42A4.24,4.24,0,0,1,87.26,103.31Zm5.82-1.49a5.29,5.29,0,0,0,.17,1.34,4.17,4.17,0,0,0,.52,1.24,2.79,2.79,0,0,0,.89.92,2.38,2.38,0,0,0,1.33.36,3,3,0,0,0,1.3-.3,3.75,3.75,0,0,0,1.07-.84v-10a4.3,4.3,0,0,1-1.13,2.15,20.67,20.67,0,0,1-1.78,1.62,16.37,16.37,0,0,0-1.65,1.54A2.73,2.73,0,0,0,93.08,101.82Z"/><path class="cls-1" d="M108.16,107.83a2,2,0,0,0,1.07-.63A5.11,5.11,0,0,0,110,106a5.89,5.89,0,0,0,.46-1.36,5.54,5.54,0,0,0,.16-1.24V85.82a8.82,8.82,0,0,0-.12-1.34,6.44,6.44,0,0,0-.4-1.49,4.55,4.55,0,0,0-.75-1.29,2,2,0,0,0-1.11-.7,5,5,0,0,0,.94.13l1,0c.48,0,1,0,1.62-.08a10.62,10.62,0,0,0,1.76-.3,8.43,8.43,0,0,0,1.64-.62,3.62,3.62,0,0,0,1.25-1v24.3a5.93,5.93,0,0,0,.16,1.23,6.42,6.42,0,0,0,.46,1.36,4.72,4.72,0,0,0,.76,1.17,2,2,0,0,0,1.07.61Z"/><path class="cls-1" d="M74.12,118a5.79,5.79,0,0,0,2.63-.58,15.61,15.61,0,0,0,2.1-1.27c.65-.46,1.27-.89,1.86-1.28a3.35,3.35,0,0,1,1.93-.59,2.26,2.26,0,0,0-1.48,1,5.17,5.17,0,0,0-.71,1.79,9.92,9.92,0,0,0-.21,2v1.72a15.36,15.36,0,0,1,2.57-2,5.85,5.85,0,0,1,3.06-.86,4.55,4.55,0,0,1,4.73,3.4,9,9,0,0,1,1.16-1.11,13,13,0,0,1,1.55-1.11,11,11,0,0,1,1.66-.87,4.15,4.15,0,0,1,1.57-.35,5,5,0,0,1,3.56,1.13,6,6,0,0,1,1.67,3,17.25,17.25,0,0,1,.47,4.21c0,1.57,0,3.18,0,4.82s0,3.24.19,4.82a11.77,11.77,0,0,0,1.13,4.21,7.15,7.15,0,0,0,2.78,3,9.91,9.91,0,0,0,5.13,1.13,4.45,4.45,0,0,0,3.37-1.17,4.7,4.7,0,0,0,1.11-3.36,10.45,10.45,0,0,0-.24-2.13,5.07,5.07,0,0,0-.84-2l2.14.32a10,10,0,0,1,2.28.59,5,5,0,0,1,1.8,1.16,2.78,2.78,0,0,1,.73,2,2.93,2.93,0,0,1-.68,1.92,6.13,6.13,0,0,1-1.77,1.44,13.69,13.69,0,0,1-2.47,1,25.29,25.29,0,0,1-2.72.7c-.91.17-1.76.29-2.56.36s-1.46.1-2,.1a25.38,25.38,0,0,1-5.57-.53,9.18,9.18,0,0,1-4-1.86,8,8,0,0,1-2.34-3.53,16.71,16.71,0,0,1-.78-5.51q0-.48.06-1.65c0-.77.08-1.65.09-2.62s0-2-.1-3a13.67,13.67,0,0,0-.51-2.89,5.88,5.88,0,0,0-1.09-2.15,2.35,2.35,0,0,0-1.9-.85A2.88,2.88,0,0,0,92,121a7.93,7.93,0,0,0-1.27.87,11,11,0,0,1,.35,2.71c0,1.09,0,2.25,0,3.47s0,2.47,0,3.72a29.08,29.08,0,0,0,.23,3.42,8.22,8.22,0,0,0,.75,2.61,2.2,2.2,0,0,0,1.54,1.27,3.4,3.4,0,0,1-1.46-.38,10,10,0,0,1-1.3-.85l-1.34-1.05a7.85,7.85,0,0,0-1.54-.92,7.67,7.67,0,0,0-1.9-.55,6.64,6.64,0,0,0-2.4.1,2,2,0,0,0,1-.59,4.25,4.25,0,0,0,.71-1,6,6,0,0,0,.41-1.22,4.93,4.93,0,0,0,.14-1.15v-4.27a18.19,18.19,0,0,0-.12-1.91,9.5,9.5,0,0,0-.48-2.14,5.11,5.11,0,0,0-1.05-1.75,2.32,2.32,0,0,0-1.79-.73,2.87,2.87,0,0,0-1.21.26,4.81,4.81,0,0,0-1.08.64v13.41a5,5,0,0,0,.16,1.19,5.49,5.49,0,0,0,.45,1.25,4.09,4.09,0,0,0,.75,1.06,1.86,1.86,0,0,0,1,.57,3.2,3.2,0,0,1-1.46-.33,8.09,8.09,0,0,1-1.31-.82l-1.33-1a9.09,9.09,0,0,0-1.53-.94,6.63,6.63,0,0,0-4.31-.47,1.94,1.94,0,0,0,1-.59,4.25,4.25,0,0,0,.71-1,5.1,5.1,0,0,0,.44-1.22,5.53,5.53,0,0,0,.14-1.15v-9.62a5.91,5.91,0,0,0-.14-1.2,4.68,4.68,0,0,0-.44-1.22,3.89,3.89,0,0,0-.73-1,2.15,2.15,0,0,0-1.06-.57c.26,0,.51.09.77.12A4.87,4.87,0,0,0,74.12,118Zm41.32,3.64a3.19,3.19,0,0,0-.66-2,2.21,2.21,0,0,0-1.87-.87,2.62,2.62,0,0,0-2,.73,2.82,2.82,0,0,0-.68,2,5.17,5.17,0,0,0,.19,1.39,3.73,3.73,0,0,0,.61,1.25l-1.25-.25a12.92,12.92,0,0,1-1.67-.45,5.67,5.67,0,0,1-1.44-.69,1.21,1.21,0,0,1-.61-1,1.89,1.89,0,0,1,.45-1.24,4.59,4.59,0,0,1,1.15-1,6.9,6.9,0,0,1,1.58-.68c.59-.17,1.18-.32,1.77-.43a16.14,16.14,0,0,1,1.67-.25c.52,0,1-.07,1.3-.07a9.39,9.39,0,0,1,3.84.65,4.8,4.8,0,0,1,2.12,1.73,5.85,5.85,0,0,1,.89,2.51,18.66,18.66,0,0,1,.12,2.92c0,1-.09,2-.17,3a18.17,18.17,0,0,0,0,2.85,6.15,6.15,0,0,0,.61,2.32,2.93,2.93,0,0,0,1.72,1.46c-.56-.16-1.09-.33-1.6-.52l-1.53-.54a15.93,15.93,0,0,0-1.58-.43,8,8,0,0,0-1.72-.17,6.76,6.76,0,0,0-1.81.24c-.58.16-1.15.35-1.7.56s-1.11.39-1.67.55a6.12,6.12,0,0,1-1.7.24,4.46,4.46,0,0,1-1.64-.29,4.38,4.38,0,0,1-1.35-.84,4,4,0,0,1-.94-1.26,3.79,3.79,0,0,1-.35-1.64,2.69,2.69,0,0,1,.73-1.93,6.65,6.65,0,0,1,1.85-1.28c.74-.36,1.54-.7,2.39-1a12.75,12.75,0,0,0,2.4-1.18,6.12,6.12,0,0,0,1.84-1.74A4.57,4.57,0,0,0,115.44,121.61Zm-2,12a2.53,2.53,0,0,0,1.18-.28,3.28,3.28,0,0,0,1-.76v-9a4,4,0,0,1-1,2,20,20,0,0,1-1.61,1.47,15.68,15.68,0,0,0-1.5,1.39,2.5,2.5,0,0,0-.66,1.76,4.68,4.68,0,0,0,.16,1.21,3.69,3.69,0,0,0,.47,1.13,2.71,2.71,0,0,0,.81.84A2.16,2.16,0,0,0,113.39,133.64Z"/><path class="cls-1" d="M124.48,135.41a1.72,1.72,0,0,0,1-.57,4.75,4.75,0,0,0,.7-1.06,6,6,0,0,0,.41-1.24,5,5,0,0,0,.14-1.13v-16a8.29,8.29,0,0,0-.1-1.22,5.89,5.89,0,0,0-.37-1.35,4.23,4.23,0,0,0-.68-1.17,1.81,1.81,0,0,0-1-.64,4.05,4.05,0,0,0,.85.12l.89,0c.43,0,.92,0,1.46-.07a9.68,9.68,0,0,0,1.61-.28,7.66,7.66,0,0,0,1.48-.55,3.56,3.56,0,0,0,1.14-.91l0,17a19.21,19.21,0,0,0,1.42-1.32,16.65,16.65,0,0,0,1.5-1.72,12.13,12.13,0,0,0,1.22-1.89,4,4,0,0,0,.5-1.81,1.91,1.91,0,0,0-.42-1.2,1.34,1.34,0,0,0-1.11-.53h9.18a3.67,3.67,0,0,0-1.6.74,15.65,15.65,0,0,0-1.67,1.5c-.58.59-1.18,1.23-1.81,1.91s-1.28,1.33-2,1.94a17.09,17.09,0,0,1-2.17,1.66,7.57,7.57,0,0,1-2.4,1h4.73c.57.88,1.1,1.64,1.56,2.28l1.53,2.1q.83,1.16,1.65,2.1a20.92,20.92,0,0,0,1.51,1.62,1.91,1.91,0,0,0,1.11.66H135.6c.3,0,.49-.07.57-.28a1.92,1.92,0,0,0,.12-.69,3.79,3.79,0,0,0-.57-1.57c-.38-.69-.82-1.41-1.3-2.15s-1-1.44-1.45-2.1-.8-1.14-1-1.45v4.28a5.42,5.42,0,0,0,.14,1.11,6.16,6.16,0,0,0,.42,1.23,3.76,3.76,0,0,0,.7,1.06,1.67,1.67,0,0,0,1,.56Z"/><path class="cls-1" d="M143.49,127.21a8.94,8.94,0,0,1,2.88-6.71,9.29,9.29,0,0,1,3.11-1.87,10.9,10.9,0,0,1,3.81-.66,6.87,6.87,0,0,1,2.9.59,6.54,6.54,0,0,1,2.22,1.61,7.45,7.45,0,0,1,1.43,2.38,8.4,8.4,0,0,1,.5,2.89H149.15v.62a7.85,7.85,0,0,0,.45,2.7,6.26,6.26,0,0,0,1.3,2.15,5.86,5.86,0,0,0,2,1.42,6.83,6.83,0,0,0,2.69.51,7.75,7.75,0,0,0,2.25-.35,4.81,4.81,0,0,0,2-1.15l.31.35a10.18,10.18,0,0,1-7.89,3.72,9.71,9.71,0,0,1-3.37-.59,8.48,8.48,0,0,1-2.8-1.67,8,8,0,0,1-1.91-2.59A7.68,7.68,0,0,1,143.49,127.21Zm5.66-2.36q1,0,2.07,0c.7,0,1.39,0,2.08,0h1a8.09,8.09,0,0,0,1-.07,2.22,2.22,0,0,0,0-.37v-.36a13.42,13.42,0,0,0-.12-1.62,7.82,7.82,0,0,0-.45-1.82,4.38,4.38,0,0,0-.9-1.48,1.85,1.85,0,0,0-1.43-.61,2,2,0,0,0-1.61.71,5.44,5.44,0,0,0-.95,1.71,10.77,10.77,0,0,0-.5,2C149.24,123.76,149.17,124.36,149.15,124.85Z"/><path class="cls-1" d="M161.42,118.24c.58,0,1.23,0,1.94,0a14.05,14.05,0,0,0,2.14-.26,9.91,9.91,0,0,0,2-.62,4.15,4.15,0,0,0,1.53-1.15v13.45a4.47,4.47,0,0,0,.16,1.21,3.14,3.14,0,0,0,.5,1.08,2.53,2.53,0,0,0,.85.78,2.32,2.32,0,0,0,1.2.3,3.53,3.53,0,0,0,1.72-.45,7.9,7.9,0,0,0,1.48-1.05v-9.21a7.08,7.08,0,0,0-.12-1.23,5.73,5.73,0,0,0-.42-1.29,4.49,4.49,0,0,0-.73-1.07,1.94,1.94,0,0,0-1.06-.61,3.87,3.87,0,0,0,.48,0h.49c.51,0,1.08,0,1.7-.07a11.46,11.46,0,0,0,1.85-.27,9.16,9.16,0,0,0,1.72-.58,4.25,4.25,0,0,0,1.37-1v15.5a4.27,4.27,0,0,0,.15,1,6.19,6.19,0,0,0,.44,1.15,3.75,3.75,0,0,0,.68,1,1.69,1.69,0,0,0,.88.52H178.2a2.9,2.9,0,0,1-2.31-.94,3.93,3.93,0,0,1-.92-2.36,17.3,17.3,0,0,1-2.8,2.26,6.15,6.15,0,0,1-3.42,1,4.79,4.79,0,0,1-2.73-.68,4.2,4.2,0,0,1-1.49-1.79,7.58,7.58,0,0,1-.63-2.56c-.08-1-.12-1.95-.12-3s0-2.05,0-3.06a18.52,18.52,0,0,0-.14-2.77,6.14,6.14,0,0,0-.68-2.13A2.45,2.45,0,0,0,161.42,118.24Z"/><path class="cls-1" d="M185.5,118c.37,0,.85,0,1.43-.09a11.79,11.79,0,0,0,1.73-.29,7,7,0,0,0,1.6-.58,2.32,2.32,0,0,0,1-.88v5a13.78,13.78,0,0,1,2.84-2.23,6.66,6.66,0,0,1,3.45-.93,5.61,5.61,0,0,1,2.78.67,6.51,6.51,0,0,1,2,1.78,7.87,7.87,0,0,1,1.27,2.46,9.25,9.25,0,0,1,.44,2.8,11.16,11.16,0,0,1-.7,4,8.47,8.47,0,0,1-2,3.07,9,9,0,0,1-3.09,2,11.16,11.16,0,0,1-4,.69,13.08,13.08,0,0,1-1.53-.09c-.51,0-1-.12-1.53-.19v3.67a5.51,5.51,0,0,0,.14,1.12,6.13,6.13,0,0,0,.42,1.25,3.85,3.85,0,0,0,.7,1.05,1.72,1.72,0,0,0,1,.56h-9.77a2,2,0,0,0,1.06-.64,4.28,4.28,0,0,0,.7-1.17,7.14,7.14,0,0,0,.38-1.35,7.39,7.39,0,0,0,.12-1.25v-16a8.59,8.59,0,0,0-.1-1.26,5.57,5.57,0,0,0-.37-1.36,4,4,0,0,0-.69-1.14,2.15,2.15,0,0,0-1.1-.68l.87,0Zm5.8,15a4.52,4.52,0,0,0,1.17,1.14,2.7,2.7,0,0,0,1.54.45,2.74,2.74,0,0,0,2.05-.85,6.29,6.29,0,0,0,1.34-2,11.23,11.23,0,0,0,.73-2.5,11.81,11.81,0,0,0,.07-4.26,7,7,0,0,0-.59-2,4.41,4.41,0,0,0-1.2-1.56,3,3,0,0,0-2-.62,4.09,4.09,0,0,0-1.68.36,5.13,5.13,0,0,0-1.45,1Z"/><path class="cls-1" d="M101.53,118h0Z"/><path class="cls-1" d="M101.49,118h0Z"/><path class="cls-1" d="M101.54,117.92h0Z"/><path class="cls-1" d="M101.52,118h0Z"/><path class="cls-1" d="M101.53,118h0Z"/><path class="cls-1" d="M101.49,118h0Z"/><path class="cls-1" d="M101.5,118h0Z"/><path class="cls-1" d="M101.54,118v0Z"/><path class="cls-1" d="M96.73,109c-.43,0-.86,0-.85.5,0,1.59,0,3.06,0,4.43,0,.23,0,.47,0,.74a.25.25,0,0,0,.26.24h22.16a1.69,1.69,0,0,0,.38,0,.25.25,0,0,0,.22-.26c0-1.45,0-3.06,0-4.84,0-.71-.47-.77-1.06-.77Q107,109,96.73,109Zm21.1,1.07a.09.09,0,0,1,.09.09v.44a.09.09,0,0,1-.09.09H96.33a.09.09,0,0,1-.09-.1v-.44a.09.09,0,0,1,.09-.09Z"/><path class="cls-1" d="M75.28,111.61l0-1.34A.28.28,0,0,0,75,110h-.06q-.33,0-.33.3l0,1.35a.08.08,0,0,1-.06.08l-.24,0h-.06a10,10,0,0,0,0-1.44A.29.29,0,0,0,74,110l-.08,0c-.18,0-.27,0-.28.21l-.09,1.42s0,.05-.06.05l-.28,0s0,0,0,0a5.14,5.14,0,0,0,.06-1.55.1.1,0,0,0-.09-.08l-.46-.06c-.05,0-.07,0-.07,0a8.16,8.16,0,0,1-.08,1.54s0,.08-.09.08H72.3a.06.06,0,0,1-.07-.07v-1.37A.23.23,0,0,0,72,110h-.27c-.11,0-.17,0-.17.16v1.43c0,.05,0,.07-.06.07h-.18s-.07,0-.07-.07l-.05-1.34A.24.24,0,0,0,71,110h-.09a.21.21,0,0,0-.24.24v1.34a.11.11,0,0,1-.1.11h-.06c-.07,0-.1,0-.11-.08l-.11-1.45a.13.13,0,0,0-.15-.14h-.24c-.11,0-.16,0-.17.16v1.45c0,.06,0,.09-.09.08l-.16,0a.11.11,0,0,1-.1-.11l0-1.35a.13.13,0,0,0,0-.06s0,0,0,0a0,0,0,0,0,0,0l0,0h-.14c-.4.17-.56.88-.58,1.25a6.06,6.06,0,0,0,.27,2.9.41.41,0,0,0,.43.23c.06,0,.09,0,.09-.08V113c0-.08,0-.11.11-.12h.15a.11.11,0,0,1,.12.12l0,1.43a.1.1,0,0,0,.11.11h.34a.14.14,0,0,0,.14-.14l0-1.38v0h0v0h0v0h0l0,0h.22a.12.12,0,0,1,.09.12v1.39a.19.19,0,0,0,.21.21h.22c.14,0,.2-.07.19-.21a3.77,3.77,0,0,1,.08-1.3.18.18,0,0,1,.27-.14.13.13,0,0,1,.07.09,4.9,4.9,0,0,1,0,1.37c0,.14,0,.21.19.2H72a.18.18,0,0,0,.2-.22,5.76,5.76,0,0,1,.11-1.37.09.09,0,0,1,.09-.08h0c.1,0,.14,0,.14.14v1.37q0,.25.24.18l.12,0a.24.24,0,0,0,.19-.25,10.78,10.78,0,0,1,.13-1.3.14.14,0,0,1,.12-.11.12.12,0,0,1,.12.07.23.23,0,0,1,0,.14c0,.47,0,.91,0,1.32a.18.18,0,0,0,.21.21h0a.32.32,0,0,0,.34-.33l.12-1.3c0-.07,0-.1.11-.1h.15s0,0,0,0l0,0s0,0,0,0v0h0l0,1.32c0,.22.09.31.31.28a.47.47,0,0,0,.24-.13.33.33,0,0,0,.12-.3,4.66,4.66,0,0,1,0-1.18.15.15,0,0,1,.13-.14h.12c.09,0,.12,0,.11.11a3.49,3.49,0,0,0,.11,1.56.08.08,0,0,0,.08.07c.23,0,.35-.08.38-.32,0-.43.07-.87.1-1.31,0-.12.07-.17.19-.15h0a.11.11,0,0,1,.1.12l0,1.42c0,.17.08.23.25.17l.1,0a.27.27,0,0,0,.19-.25l0-1.21c0-.1,0-.16.15-.17h.07a.13.13,0,0,1,.13.15v1.29a.11.11,0,0,0,.07.09.14.14,0,0,0,.09,0,.15.15,0,0,0,.11-.12,4.49,4.49,0,0,0,.13-1.16.08.08,0,0,1,.09-.08l14.94,0c.92,0,1.76,0,2.53,0,0,0,.07,0,.07-.08v-1.39a.07.07,0,0,0-.08-.08q-7.74,0-15.1,0l-2.4,0c-.06,0-.08,0-.09-.09l0-1a.26.26,0,0,0-.13-.23l-.08,0c-.09-.05-.13,0-.13.08a9.58,9.58,0,0,1-.08,1.42c0,.09-.06.12-.15.08a.09.09,0,0,1-.06-.07,3.9,3.9,0,0,1,0-1.32.19.19,0,0,0-.15-.22l-.26-.06c-.12,0-.18,0-.19.14l-.17,1.47a0,0,0,0,1-.05,0h-.21v0h0l0-1.37a.21.21,0,0,0-.24-.26h-.18c-.17,0-.26.07-.27.25l0,1.41s0,0,0,0h-.18S75.28,111.66,75.28,111.61Z"/><rect class="cls-1" x="96.24" y="110.05" width="21.68" height="0.63" rx="0.09"/><path class="cls-1" d="M177.62,79.27v0a0,0,0,0,0,0,0Z"/><path class="cls-1" d="M177.42,80.37a0,0,0,0,0,0,0A0,0,0,0,1,177.42,80.37Z"/><path class="cls-1" d="M177.39,80.41s0,0,0,0S177.39,80.42,177.39,80.41Z"/><path class="cls-1" d="M177.42,80.34v0Z"/><path class="cls-1" d="M177.36,80.44l0,0Z"/><path class="cls-1" d="M177.63,79.23h0Z"/><path class="cls-1" d="M178.35,82.15Z"/><path class="cls-1" d="M178.35,82.18h0Z"/><path class="cls-1" d="M178.28,81.87h0Z"/><path class="cls-1" d="M178.34,82.21h0Z"/><path class="cls-1" d="M178.3,81.89v0Z"/><path class="cls-1" d="M178.26,81.86h0Z"/><path class="cls-1" d="M178.32,82.23h0Z"/><path class="cls-1" d="M175.79,89.43h0a.13.13,0,0,1-.13.13l-4.47,0,4.47,0a.13.13,0,0,0,.13-.13h0a.09.09,0,0,0,0-.05A.09.09,0,0,1,175.79,89.43Z"/><path class="cls-1" d="M178.83,81.41v0Z"/><path class="cls-1" d="M178.23,81.86Z"/><path class="cls-1" d="M178.75,81.36Z"/><path class="cls-1" d="M178.78,81.37h0Z"/><path class="cls-1" d="M178.81,81.39h0Z"/><path class="cls-1" d="M170.94,78.34l.05,0c.06,0,.08,0,.08-.07l0-5.2a.17.17,0,0,1,.07-.14c.7-.51,1.36-1,2-1.5A7.16,7.16,0,0,0,175.72,68c.05-.19,0-.21-.1,0a6.41,6.41,0,0,1-.44.56,36.47,36.47,0,0,1-4.13,3.84.74.74,0,0,0-.3.67c0,1.71.06,3.42.07,5.15A.15.15,0,0,0,170.94,78.34Z"/><path class="cls-1" d="M170.54,79.53v0h.11c.54-.16.78.28.7.74,0,0,0,0,0,0v0h0l0,0h5.94l0,0h0s0,0,0,0h0a0,0,0,0,1,0,0v-.06l-.21-.75a.33.33,0,0,0-.23-.24,7.14,7.14,0,0,0-2.21-.23,26.54,26.54,0,0,0-4.12.23.12.12,0,0,0-.11.09.17.17,0,0,0,0,.1Z"/><path class="cls-1" d="M177.38,80.43h0Z"/><path class="cls-1" d="M177.33,80.46h0Z"/><path class="cls-1" d="M177.41,80.4h0Z"/><path class="cls-1" d="M177.42,80.35v0Z"/><path class="cls-1" d="M177.79,80c.06.37.11.37.17,0a1.54,1.54,0,0,0-.06-.74.15.15,0,0,0-.16-.1h-.07s0,0,0,0h0v0A5,5,0,0,1,177.79,80Z"/><path class="cls-1" d="M177.66,79.21s0,0,0,0,0,0,0,0Z"/><path class="cls-1" d="M177.63,79.25v0Z"/><path class="cls-1" d="M177,88.29c.07-1.64.18-3.37.34-5.17a.26.26,0,0,1,.14-.22l.67-.35c.12-.06.19,0,.2.12a52.23,52.23,0,0,1-.07,5.73s0,0,.05,0h.06c.16-1.53.41-3.1.46-4.58,0-.82,0-1.62,0-2.42v0h-.08a15.31,15.31,0,0,1-1.77.07c-1.83,0-3.64,0-5.43,0-1,0-1,1-1,1.73,0,2,0,3.66,0,5.09,0,.08,0,.12.13.12l6.15,0A.17.17,0,0,0,177,88.29Zm1.2-6.43h.1v0h0l0,.23h0v0h0v0h-.08a2.3,2.3,0,0,1-1,.05l0-.13A2.31,2.31,0,0,1,178.2,81.86Z"/><path class="cls-1" d="M178.84,81.44h0v0Z"/><path class="cls-1" d="M178.82,81.4h0Z"/><path class="cls-1" d="M178.77,81.37h0Z"/><path class="cls-1" d="M178.8,81.38h0Z"/><path class="cls-1" d="M175.14,112.58a0,0,0,0,0,0,0h0a.09.09,0,0,0,.06,0c1.64,0,3.4,0,5.3,0,1,0,1.74-.16,1.75-1.33q0-10.39,0-20.06a4.09,4.09,0,0,0-.21-1.9,1.81,1.81,0,0,0-1.74-.64h0l0,0h0a0,0,0,0,0,0,0s0,0,0,0v0a0,0,0,0,1,0,0h0c0-2.45,0-4.8,0-7.07,0-.45-.22-.64-.69-.56a.19.19,0,0,1-.25-.19,12,12,0,0,1-.07-1.69c0-.26-.07-.49-.36-.55a8.88,8.88,0,0,0-1.19-.16.12.12,0,0,1-.11-.12q0-3.17,0-6.29a13.2,13.2,0,0,0-1-5.19.12.12,0,0,0-.16-.09,2.14,2.14,0,0,0-.65.25,20.22,20.22,0,0,0-4.11,3.22c-.43.43-1.29,1.33-1.29,1.93,0,2.15,0,4.18,0,6.1a.19.19,0,0,1-.2.23l-.53,0a.38.38,0,0,0-.34.36l-.08,2.07v0s0,0,0,0a0,0,0,0,1,0,0s0,0,0,0a0,0,0,0,1,0,0l0,0H169a.62.62,0,0,0-.59.16.28.28,0,0,0-.09.19l0,7.14a.17.17,0,0,1-.19.19c-.73,0-1.62.35-1.62,1.22q.06,11,0,21.75,0,.82.69.9a9.09,9.09,0,0,0,1.7,0,.4.4,0,0,0,.32-.24,3.22,3.22,0,0,1,1.1-1.51.22.22,0,0,0,.08-.15c0-.64,0-1.29,0-1.94q0-8.64,0-16.29c0-.65.48-1.53,1.23-1.54,1.68,0,3.26,0,4.75,0a.33.33,0,0,1,.33.33q.08,9.11,0,18.69c0,.76-.85.76-1.09,1.35a3.87,3.87,0,0,1-.47,1.15.14.14,0,0,0,0,.06h0ZM180,90.06a.1.1,0,0,1,.1-.11h.64a.11.11,0,0,1,.11.11v20.87a.11.11,0,0,1-.11.11h-.64a.1.1,0,0,1-.1-.11Zm-10.53,1.27a14.32,14.32,0,0,0-.45,2.41,9.47,9.47,0,0,1-.13,1c0,.06,0,.06,0,0a11.33,11.33,0,0,0-.28-2.35,2,2,0,0,1,.11-1.31.31.31,0,0,1,.43-.19l.08,0A.34.34,0,0,1,169.49,91.33Zm8.14-12.1h0s0,0,0,0h.08a.15.15,0,0,1,.16.1A1.54,1.54,0,0,1,178,80c-.06.37-.11.37-.17,0a5,5,0,0,0-.17-.77h0a0,0,0,0,1,0,0Zm-6.58-6.86a36.47,36.47,0,0,0,4.13-3.84,6.41,6.41,0,0,0,.44-.56c.11-.16.15-.14.1,0a7.16,7.16,0,0,1-2.64,3.43c-.61.49-1.27,1-2,1.5a.17.17,0,0,0-.07.14l0,5.2c0,.06,0,.08-.08.07l-.05,0a.15.15,0,0,1-.12-.15c0-1.73,0-3.44-.07-5.15A.74.74,0,0,1,171.05,72.37Zm-.62,7.95h0s-.08-.12-.09-.27a.38.38,0,0,1,0-.15h0c0-.07,0-.12,0-.12h0s.08.11.09.27h0A.49.49,0,0,1,170.43,80.32Zm.11-.91a.12.12,0,0,1,.11-.09,26.54,26.54,0,0,1,4.12-.23,7.14,7.14,0,0,1,2.21.23.33.33,0,0,1,.23.24l.21.75v0h0v0a0,0,0,0,0,0,0h0s0,0,0,0h0l0,0H171.4l0,0h0v0s0,0,0,0v0c.08-.46-.16-.9-.7-.74h-.11v0h0A.17.17,0,0,1,170.54,79.41Zm.69,1.06a.71.71,0,0,1-.3-.52s0-.06.06,0l.06,0a.08.08,0,0,1,0,.07.65.65,0,0,0,.11.37l0,.08Q171.31,80.55,171.23,80.47Zm4.56,9a.13.13,0,0,1-.13.13l-4.47,0a.15.15,0,0,1-.12-.08.13.13,0,0,1,0-.06h0a.13.13,0,0,1,.13-.13l4.47,0a.13.13,0,0,1,.12.08.09.09,0,0,1,0,.05Zm-5.11-1c-.08,0-.13,0-.13-.12,0-1.43,0-3.13,0-5.09,0-.74,0-1.69,1-1.73,1.79-.07,3.6-.08,5.43,0a15.31,15.31,0,0,0,1.77-.07h.08v0h0c0,.8,0,1.6,0,2.42,0,1.48-.3,3-.46,4.58h-.06s-.05,0-.05,0a52.23,52.23,0,0,0,.07-5.73c0-.14-.08-.18-.2-.12l-.67.35a.26.26,0,0,0-.14.22c-.16,1.8-.27,3.53-.34,5.17a.17.17,0,0,1-.17.17Z"/><path class="cls-1" d="M178.26,82.24h.08v0h0v0h0l0-.23h0v0h-.1a2.31,2.31,0,0,0-1,.3l0,.13A2.3,2.3,0,0,0,178.26,82.24Z"/><path class="cls-1" d="M178.34,82.19v0Z"/><path class="cls-1" d="M178.33,82.22h0Z"/><path class="cls-1" d="M178.29,82.24h0Z"/><path class="cls-1" d="M178.35,82.16v0Z"/><path class="cls-1" d="M178.24,81.86h0Z"/><path class="cls-1" d="M178.31,81.92h0Z"/><path class="cls-1" d="M178.27,81.87h0Z"/><path class="cls-1" d="M178.29,81.88h0Z"/><path class="cls-1" d="M175.79,89.44h0a.09.09,0,0,0,0-.05.13.13,0,0,0-.12-.08l-4.47,0a.13.13,0,0,0-.13.13h0a.13.13,0,0,0,0,.06.15.15,0,0,0,.12.08l4.47,0A.13.13,0,0,0,175.79,89.44Z"/><path class="cls-1" d="M171.19,89.26l4.47,0a.13.13,0,0,1,.12.08.13.13,0,0,0-.12-.08l-4.47,0a.13.13,0,0,0-.13.13h0A.13.13,0,0,1,171.19,89.26Z"/><rect class="cls-1" x="180.02" y="89.95" width="0.85" height="21.09" rx="0.1"/></g></g></svg>